#!OML:ASF F:\VICON\USERDATA\INSTALL\rory3\rory3.ASF
:FULLY-SPECIFIED
:DEGREES
204
root 1.0626 17.3722 -20.2826 9.86969 -0.340907 -1.56284
lowerback -13.2573 -1.78484 -1.65115
upperback -4.86449 -2.22139 1.97656
thorax 2.45568 -1.08446 2.65689
lowerneck -13.8741 -1.70554 -6.60309
upperneck 28.2092 -1.74332 3.44009
head 11.5798 -1.07726 2.16232
rclavicle 2.30093e-014 -7.7526e-015
rhumerus -45.7744 1.91773 -84.9792
rradius 31.2245
rwrist 3.00393
rhand -25.0573 -46.0264
rfingers 7.12502
rthumb 1.45622 -76.0012
lclavicle 2.30093e-014 -7.7526e-015
lhumerus -32.6075 -10.312 93.4565
lradius 34.12
lwrist 8.38814
lhand -32.9282 -28.4514
lfingers 7.12502
lthumb -6.14491 1.43945
rfemur -37.4969 11.5923 21.5222
rtibia 32.4538
rfoot -2.71567 -10.3843
rtoes 7.7161
lfemur 1.70228 -0.539681 -20.4806
ltibia 33.5586
lfoot -2.18071 -11.0589
ltoes -17.6669
205
root 1.03632 17.3825 -20.1287 10.2996 -0.586929 -1.65517
lowerback -13.2677 -1.59572 -1.66014
upperback -5.59359 -1.96248 1.89914
thorax 1.67985 -0.940712 2.63122
lowerneck -12.6539 -1.73008 -6.42185
upperneck 28.2528 -1.91828 3.44626
head 11.3566 -1.14738 2.11171
rclavicle 2.31336e-014 -1.47101e-014
rhumerus -47.0289 1.80882 -85.0995
rradius 31.489
rwrist 2.34529
rhand -26.1313 -46.3082
rfingers 7.12502
rthumb 0.418948 -76.2875
lclavicle 2.31336e-014 -1.47101e-014
lhumerus -34.2448 -10.4018 93.5393
lradius 33.9111
lwrist 8.63561
lhand -32.8943 -28.3384
lfingers 7.12502
lthumb -6.11215 1.55347
rfemur -37.5476 11.5709 21.8167
rtibia 32.7071
rfoot -2.93931 -9.8466
rtoes 8.26416
lfemur 0.290474 0.108715 -20.1077
ltibia 35.691
lfoot -0.354836 -11.5386
ltoes -17.5912
206
root 1.00913 17.4005 -19.9626 9.88356 0.204158 -1.59599
lowerback -12.8016 -1.76343 -1.70885
upperback -4.92397 -2.18307 1.78019
thorax 2.1398 -1.06222 2.50219
lowerneck -15.3582 -1.9644 -6.24609
upperneck 28.8819 -2.12121 3.43503
head 12.1666 -1.20477 2.05224
rclavicle 6.00081e-015 -7.95139e-016
rhumerus -45.552 1.44857 -85.0527
rradius 31.308
rwrist 2.65166
rhand -25.9794 -47.2434
rfingers 7.12502
rthumb 0.565599 -77.2224
lclavicle 6.00081e-015 -7.95139e-016
lhumerus -33.3488 -10.548 93.0996
lradius 33.549
lwrist 8.92218
lhand -32.9321 -28.5792
lfingers 7.12502
lthumb -6.14866 1.31158
rfemur -36.4739 11.1965 22.108
rtibia 32.946
rfoot -3.85219 -10.171
rtoes 8.83832
lfemur -0.344569 -0.108532 -19.6481
ltibia 37.9319
lfoot 1.81808 -12.1046
ltoes -14.5535
207
root 0.995793 17.4109 -19.7993 9.5239 -0.0169709 -1.97804
lowerback -12.7483 -1.56279 -1.26494
upperback -4.70842 -1.97357 1.78815
thorax 2.31096 -0.964414 2.28872
lowerneck -15.5883 -1.97306 -6.1803
upperneck 28.8579 -2.14484 3.4655
head 12.2052 -1.20141 2.04819
rclavicle 1.12065e-014 -1.16289e-014
rhumerus -45.3009 1.4196 -85.0392
rradius 31.2313
rwrist 2.78073
rhand -26.0282 -46.957
rfingers 7.12502
rthumb 0.518521 -76.9361
lclavicle 1.12065e-014 -1.16289e-014
lhumerus -33.7429 -10.3795 92.9072
lradius 33.4831
lwrist 9.20392
lhand -32.5588 -27.1634
lfingers 7.12502
lthumb -5.78827 2.73751
rfemur -35.4895 11.1991 22.8429
rtibia 33.1418
rfoot -4.73213 -9.90061
rtoes 8.8579
lfemur -1.03419 0.420951 -19.0594
ltibia 40.3441
lfoot 3.4294 -12.4962
ltoes -12.6144
208
root 0.968703 17.421 -19.6601 9.72775 0.594878 -2.30774
lowerback -12.9694 -1.69742 -1.08276
upperback -4.71402 -2.17542 1.90102
thorax 2.43272 -1.06569 2.26848
lowerneck -15.7703 -1.98865 -6.164
upperneck 28.8362 -2.17202 3.5096
head 12.2359 -1.20379 2.05743
rclavicle 1.43498e-014 -2.16675e-014
rhumerus -45.2275 1.4671 -85.0224
rradius 31.4568
rwrist 2.6177
rhand -26.5159 -45.9033
rfingers 7.12502
rthumb 0.0475106 -75.883
lclavicle 1.43498e-014 -2.16675e-014
lhumerus -34.1109 -10.0456 92.6876
lradius 33.4139
lwrist 9.27505
lhand -32.1247 -26.4192
lfingers 7.12502
lthumb -5.36912 3.49276
rfemur -35.1788 10.9316 23.4222
rtibia 33.3038
rfoot -5.31919 -10.116
rtoes 9.05985
lfemur -2.68603 0.333678 -18.259
ltibia 42.8326
lfoot 5.34802 -13.0473
ltoes -12.3531
209
root 0.949326 17.421 -19.5294 10.07 0.0520909 -2.62532
lowerback -13.1561 -1.41236 -0.82882
upperback -4.85931 -1.83063 1.96275
thorax 2.35927 -0.893761 2.23973
lowerneck -15.6371 -2.05085 -6.24387
upperneck 28.7256 -2.27731 3.61456
head 12.1729 -1.2457 2.09384
rclavicle 4.05024e-015 8.24956e-015
rhumerus -45.2594 1.47624 -84.9452
rradius 31.9185
rwrist 2.9587
rhand -25.5774 -46.9595
rfingers 7.12502
rthumb 0.953936 -76.9371
lclavicle 4.05024e-015 8.24956e-015
lhumerus -34.6149 -9.91449 92.5897
lradius 33.0377
lwrist 9.20464
lhand -32.4143 -27.1109
lfingers 7.12502
lthumb -5.64877 2.79385
rfemur -35.1698 11.1563 23.8931
rtibia 33.4521
rfoot -5.71281 -9.64871
rtoes 9.28286
lfemur -4.53435 1.12531 -17.8368
ltibia 45.4956
lfoot 7.23807 -12.9939
ltoes -11.7937
210
root 0.933374 17.4272 -19.382 9.7127 0.123496 -2.82051
lowerback -12.7649 -1.35105 -0.62369
upperback -5.3603 -1.76632 1.9399
thorax 1.61504 -0.855774 2.1236
lowerneck -13.4938 -1.98992 -6.29647
upperneck 28.2904 -2.34757 3.7295
head 11.5677 -1.28458 2.13515
rclavicle 1.90088e-015 5.86415e-015
rhumerus -46.5318 1.62787 -85.0191
rradius 31.9231
rwrist 2.62699
rhand -25.6631 -46.536
rfingers 7.12502
rthumb 0.871172 -76.5139
lclavicle 1.90088e-015 5.86415e-015
lhumerus -36.4357 -9.82627 92.6454
lradius 32.7171
lwrist 9.14919
lhand -32.8751 -28.5661
lfingers 7.12502
lthumb -6.09359 1.32622
rfemur -34.2146 11.1912 24.3567
rtibia 33.5349
rfoot -6.34371 -9.79032
rtoes 9.54833
lfemur -5.60707 1.32145 -17.4323
ltibia 48.1518
lfoot 8.53621 -12.9224
ltoes -11.9984
211
root 0.914611 17.4307 -19.2596 9.90004 0.98943 -2.89994
lowerback -12.7538 -1.64404 -0.61161
upperback -5.36527 -2.15685 2.05572
thorax 1.62418 -1.04927 2.18265
lowerneck -13.8357 -2.02004 -6.45112
upperneck 28.3336 -2.33149 3.74624
head 11.6563 -1.2888 2.16994
rclavicle -1.47349e-014 -1.70955e-014
rhumerus -46.366 2.127 -85.2306
rradius 32.1029
rwrist 1.80235
rhand -26.0255 -46.1284
rfingers 7.12502
rthumb 0.521133 -76.1075
lclavicle -1.47349e-014 -1.70955e-014
lhumerus -36.6922 -9.38691 92.4459
lradius 32.5097
lwrist 9.28807
lhand -32.739 -29.0959
lfingers 7.12502
lthumb -5.96222 0.800196
rfemur -33.9254 10.6445 24.658
rtibia 33.5913
rfoot -6.79331 -10.1339
rtoes 9.39466
lfemur -7.55804 0.9055 -17.0071
ltibia 50.8637
lfoot 10.0886 -12.8866
ltoes -9.64329
212
root 0.894007 17.4248 -19.1175 9.61585 0.820661 -3.75308
lowerback -12.2599 -1.4432 0.230486
upperback -5.21795 -1.99232 2.26735
thorax 1.48422 -0.975899 1.96035
lowerneck -14.6612 -2.04779 -6.59496
upperneck 28.6112 -2.3238 3.89595
head 11.9377 -1.27671 2.2545
rclavicle 1.90088e-015 8.44835e-015
rhumerus -46.0461 2.10809 -85.1333
rradius 32.3019
rwrist 2.18652
rhand -26.3908 -45.6071
rfingers 7.12502
rthumb 0.168319 -75.5867
lclavicle 1.90088e-015 8.44835e-015
lhumerus -36.8746 -9.1397 92.2187
lradius 32.2798
lwrist 9.42208
lhand -32.741 -28.3761
lfingers 7.12502
lthumb -5.96415 1.51993
rfemur -33.0285 10.9457 25.8387
rtibia 33.5652
rfoot -7.20624 -10.2226
rtoes 8.97415
lfemur -8.76179 1.52647 -15.894
ltibia 53.5341
lfoot 12.3909 -12.4385
ltoes -0.465795
213
root 0.881666 17.4219 -18.9782 9.52737 0.71303 -4.43754
lowerback -12.1503 -1.26279 0.990327
upperback -4.86656 -1.85021 2.43832
thorax 1.76842 -0.91289 1.72661
lowerneck -15.8361 -2.14301 -6.81062
upperneck 28.746 -2.3739 4.08853
head 12.243 -1.28725 2.35747
rclavicle 9.42985e-015 -5.26779e-015
rhumerus -45.1584 2.23039 -85.0672
rradius 32.3648
rwrist 2.34649
rhand -26.687 -45.2851
rfingers 7.12502
rthumb -0.117808 -75.2648
lclavicle 9.42985e-015 -5.26779e-015
lhumerus -36.4544 -8.83593 91.8856
lradius 31.6863
lwrist 9.00396
lhand -32.6664 -28.5763
lfingers 7.12502
lthumb -5.89218 1.32176
rfemur -32.2993 10.9653 26.7976
rtibia 33.4542
rfoot -7.72388 -10.1224
rtoes 8.9102
lfemur -10.2096 2.03942 -15.07
ltibia 56.1477
lfoot 12.5228 -10.8938
ltoes 0.972165
214
root 0.865403 17.422 -18.869 9.5287 1.42676 -4.80627
lowerback -11.9788 -1.28032 1.2692
upperback -4.92368 -1.8983 2.48086
thorax 1.60937 -0.938917 1.61191
lowerneck -15.3487 -2.30645 -6.66576
upperneck 28.3685 -2.66571 4.04761
head 12.0091 -1.40751 2.26777
rclavicle 2.9886e-014 -1.47101e-014
rhumerus -45.0541 2.13748 -85.123
rradius 32.4295
rwrist 1.93595
rhand -26.395 -46.1032
rfingers 7.12502
rthumb 0.164248 -76.0829
lclavicle 2.9886e-014 -1.47101e-014
lhumerus -36.9019 -9.02088 91.7642
lradius 31.226
lwrist 8.70693
lhand -32.4651 -29.4222
lfingers 7.12502
lthumb -5.69782 0.481161
rfemur -31.7342 10.48 27.4154
rtibia 33.2361
rfoot -8.07043 -10.3248
rtoes 9.08481
lfemur -12.0693 1.84618 -14.4654
ltibia 58.7036
lfoot 5.85068 -8.3692
ltoes -24.4967
215
root 0.86749 17.4243 -18.7341 9.15561 1.424 -5.48771
lowerback -11.1398 -0.984703 2.24896
upperback -4.96439 -1.58012 2.44022
thorax 1.07621 -0.794388 1.0761
lowerneck -15.6193 -2.45508 -6.40548
upperneck 28.3861 -2.93831 4.05033
head 12.0845 -1.49782 2.18237
rclavicle 3.6477e-014 -3.37437e-014
rhumerus -44.9791 1.99106 -85.2581
rradius 32.4071
rwrist 1.52347
rhand -26.0122 -47.2814
rfingers 7.12502
rthumb 0.533983 -77.2605
lclavicle 3.6477e-014 -3.37437e-014
lhumerus -37.5038 -9.41458 91.6757
lradius 31.0259
lwrist 8.90627
lhand -33.1067 -29.347
lfingers 7.12502
lthumb -6.31722 0.538822
rfemur -30.6286 10.4305 28.3479
rtibia 33.0006
rfoot -8.46414 -10.2605
rtoes 8.85887
lfemur -13.1595 2.24736 -13.7245
ltibia 61.0264
lfoot 8.23454 -7.60908
ltoes -13.5022
216
root 0.866585 17.4239 -18.6042 9.04866 1.55965 -6.1774
lowerback -11.534 -0.869609 3.01015
upperback -4.9302 -1.52819 2.64295
thorax 1.30931 -0.773364 0.858405
lowerneck -14.3605 -2.44002 -6.69859
upperneck 27.728 -2.97003 4.27837
head 11.5804 -1.52281 2.30941
rclavicle 2.21831e-014 -1.25234e-014
rhumerus -45.1113 2.22967 -85.1731
rradius 32.6115
rwrist 1.27436
rhand -25.8411 -47.4492
rfingers 7.12502
rthumb 0.699208 -77.4278
lclavicle 2.21831e-014 -1.25234e-014
lhumerus -38.0929 -9.04014 91.6078
lradius 30.8674
lwrist 8.80487
lhand -33.4429 -28.7519
lfingers 7.12502
lthumb -6.64183 1.12395
rfemur -29.8655 10.3871 29.2405
rtibia 32.7903
rfoot -8.89617 -10.2922
rtoes 8.80796
lfemur -14.6667 2.6032 -12.9263
ltibia 63.2504
lfoot 7.20459 -6.58733
ltoes -14.7575
